#!OML:ASF H:\ManfredETheater\Project 1\Capture day 1\Session 1\subject.ASF
:FULLY-SPECIFIED
:DEGREES
363
root 1.61916 16.0752 -37.3609 -149.107 1.65264 -180.369
lowerback 16.2095 0.275982 3.22762
upperback -1.94671 1.31357 1.88048
thorax -11.2616 0.524642 -0.114621
lowerneck -19.3096 -0.336626 -0.496171
upperneck 1.06264 0.507011 -3.813
head 3.36358 0.28046 -1.04917
rclavicle 1.98785e-015 1.11319e-014
rhumerus -30.1744 14.8603 -86.2207
rradius 123.192
rwrist -15.5248
rhand -20.9699 10.3259
rfingers 7.12502
rthumb 5.40345 -19.5852
lclavicle 1.98785e-015 1.11319e-014
lhumerus -79.5306 -15.7372 97.2386
lradius 99.2991
lwrist 22.141
lhand -16.4703 -12.2011
lfingers 7.12502
lthumb 9.74645 17.5534
rfemur -19.5292 -1.49117 23.6009
rtibia 46.1709
rfoot -23.2583 -12.6172
rtoes -51.4682
lfemur -68.5474 7.80341 -22.7089
ltibia 102.768
lfoot -9.41844 -6.1
ltoes -9.11658
364
root 1.64536 16.1151 -37.8498 -149.35 0.984218 -180.417
lowerback 15.8214 0.468835 3.36775
upperback -1.96078 1.57485 1.83745
thorax -11.0401 0.641089 -0.302668
lowerneck -19.2306 -0.590384 -0.611639
upperneck 1.46661 0.194341 -3.92956
head 3.47226 0.101892 -1.09365
rclavicle -1.98785e-015 4.77083e-015
rhumerus -29.7255 15.5587 -84.785
rradius 126.777
rwrist -15.3328
rhand -20.6548 11.2152
rfingers 7.12502
rthumb 5.70761 -18.6879
lclavicle -1.98785e-015 4.77083e-015
lhumerus -82.3586 -16.1012 97.4083
lradius 101.262
lwrist 22.01
lhand -16.0351 -12.1364
lfingers 7.12502
lthumb 10.1663 17.598
rfemur -15.9843 -1.27158 23.6387
rtibia 42.7029
rfoot -20.5705 -10.23
rtoes -51.1514
lfemur -70.8428 7.56575 -22.9305
ltibia 101.946
lfoot -10.5543 -6.96998
ltoes -10.4419
365
root 1.6686 16.1605 -38.35 -149.674 0.222131 -180.425
lowerback 15.4715 0.606992 3.58614
upperback -1.93016 1.78537 1.83325
thorax -10.7901 0.733488 -0.477574
lowerneck -19.1522 -0.165535 -0.953455
upperneck 1.89803 -0.229448 -4.02067
head 3.58607 -0.580173 -1.13206
rclavicle 2.78299e-015 8.74653e-015
rhumerus -29.2667 16.1463 -83.3169
rradius 129.915
rwrist -15.0347
rhand -20.4148 12.0905
rfingers 7.12502
rthumb 5.93935 -17.8063
lclavicle 2.78299e-015 8.74653e-015
lhumerus -84.7972 -16.2247 97.4206
lradius 102.827
lwrist 21.3415
lhand -15.8368 -12.2438
lfingers 7.12502
lthumb 10.3576 17.4811
rfemur -12.3144 -0.940453 23.7617
rtibia 39.02
rfoot -16.7733 -7.46682
rtoes -50.6324
lfemur -72.8257 7.225 -23.1062
ltibia 100.704
lfoot -11.5759 -8.00841
ltoes -11.6693
366
root 1.68889 16.2112 -38.8605 -150.066 -0.584177 -180.378
lowerback 15.1684 0.823689 3.91354
upperback -1.86784 1.93638 1.84928
thorax -10.5248 0.713609 -0.660801
lowerneck -19.0794 -0.387504 -1.06445
upperneck 2.26407 -0.44964 -4.09843
head 3.6856 -0.686415 -1.15774
rclavicle -1.03368e-014 -1.74931e-014
rhumerus -28.8199 16.6066 -81.8966
rradius 132.544
rwrist -14.7098
rhand -20.2603 12.8534
rfingers 7.12502
rthumb 6.08849 -17.0391
lclavicle -1.03368e-014 -1.74931e-014
lhumerus -86.8132 -16.1566 97.2699
lradius 104.034
lwrist 20.3273
lhand -15.8596 -12.5084
lfingers 7.12502
lthumb 10.3356 17.2176
rfemur -8.56207 -0.448646 23.9739
rtibia 35.1021
rfoot -11.4208 -4.54719
rtoes -49.7213
lfemur -74.4884 6.84815 -23.2531
ltibia 99.0707
lfoot -12.4888 -9.19668
ltoes -12.7127
367
root 1.70644 16.265 -39.3791 -150.514 -1.40283 -180.276
lowerback 14.9169 0.909262 4.28704
upperback -1.77536 2.09686 1.88136
thorax -10.2587 0.772629 -0.868289
lowerneck -19.0202 -0.587345 -1.19007
upperneck 2.62631 -0.641275 -4.14276
head 3.78657 -0.77815 -1.16874
rclavicle 9.54166e-015 4.77083e-015
rhumerus -28.4207 16.9503 -80.585
rradius 134.618
rwrist -14.4923
rhand -20.2182 13.4272
rfingers 7.12502
rthumb 6.12912 -16.4642
lclavicle 9.54166e-015 4.77083e-015
lhumerus -88.3826 -15.9629 96.9744
lradius 104.942
lwrist 19.1515
lhand -16.0508 -12.8696
lfingers 7.12502
lthumb 10.1511 16.8656
rfemur -4.73086 0.218337 24.292
rtibia 30.9436
rfoot -4.52589 -2.00562
rtoes -48.3651
lfemur -75.8425 6.47754 -23.3879
ltibia 97.0949
lfoot -13.2887 -10.4989
ltoes -13.4928
368
root 1.72154 16.3193 -39.9038 -150.996 -2.2163 -180.109
lowerback 14.6995 0.978082 4.74194
upperback -1.6573 2.24609 1.91833
thorax -9.98062 0.822953 -1.11235
lowerneck -18.9949 -0.76426 -1.32509
upperneck 2.98753 -0.804738 -4.14277
head 3.89299 -0.854981 -1.1627
rclavicle -2.22639e-014 -7.95139e-016
rhumerus -28.0882 17.2087 -79.4493
rradius 136.103
rwrist -14.462
rhand -20.2805 13.7457
rfingers 7.12502
rthumb 6.06899 -16.1474
lclavicle -2.22639e-014 -7.95139e-016
lhumerus -89.4832 -15.6915 96.5413
lradius 105.628
lwrist 17.9656
lhand -16.3542 -13.2443
lfingers 7.12502
lthumb 9.85847 16.5048
rfemur -0.880225 1.06731 24.7493
rtibia 26.6279
rfoot 3.60961 -0.282358
rtoes -46.2726
lfemur -76.9248 6.14802 -23.5223
ltibia 94.8331
lfoot -13.973 -11.8553
ltoes -14.0703
